<svg id="container" width="456.1724853515625" xmlns="http://www.w3.org/2000/svg" class="flowchart" height="698.421875" viewBox="0 0 456.1724853515625 698.421875" role="graphics-document document" aria-roledescription="flowchart-v2"><style>#container{font-family:"trebuchet ms",verdana,arial,sans-serif;font-size:16px;fill:#333;}@keyframes edge-animation-frame{from{stroke-dashoffset:0;}}@keyframes dash{to{stroke-dashoffset:0;}}#container .edge-animation-slow{stroke-dasharray:9,5!important;stroke-dashoffset:900;animation:dash 50s linear infinite;stroke-linecap:round;}#container .edge-animation-fast{stroke-dasharray:9,5!important;stroke-dashoffset:900;animation:dash 20s linear infinite;stroke-linecap:round;}#container .error-icon{fill:#552222;}#container .error-text{fill:#552222;stroke:#552222;}#container .edge-thickness-normal{stroke-width:1px;}#container .edge-thickness-thick{stroke-width:3.5px;}#container .edge-pattern-solid{stroke-dasharray:0;}#container .edge-thickness-invisible{stroke-width:0;fill:none;}#container .edge-pattern-dashed{stroke-dasharray:3;}#container .edge-pattern-dotted{stroke-dasharray:2;}#container .marker{fill:#333333;stroke:#333333;}#container .marker.cross{stroke:#333333;}#container svg{font-family:"trebuchet ms",verdana,arial,sans-serif;font-size:16px;}#container p{margin:0;}#container .label{font-family:"trebuchet ms",verdana,arial,sans-serif;color:#333;}#container .cluster-label text{fill:#333;}#container .cluster-label span{color:#333;}#container .cluster-label span p{background-color:transparent;}#container .label text,#container span{fill:#333;color:#333;}#container .node rect,#container .node circle,#container .node ellipse,#container .node polygon,#container .node path{fill:#ECECFF;stroke:#9370DB;stroke-width:1px;}#container .rough-node .label text,#container .node .label text,#container .image-shape .label,#container .icon-shape .label{text-anchor:middle;}#container .node .katex path{fill:#000;stroke:#000;stroke-width:1px;}#container .rough-node .label,#container .node .label,#container .image-shape .label,#container .icon-shape .label{text-align:center;}#container .node.clickable{cursor:pointer;}#container .root .anchor path{fill:#333333!important;stroke-width:0;stroke:#333333;}#container .arrowheadPath{fill:#333333;}#container .edgePath .path{stroke:#333333;stroke-width:1px;}#container .flowchart-link{stroke:#333333;fill:none;}#container .edgeLabel{background-color:rgba(232,232,232, 0.8);text-align:center;}#container .edgeLabel p{background-color:rgba(232,232,232, 0.8);}#container .edgeLabel rect{opacity:0.5;background-color:rgba(232,232,232, 0.8);fill:rgba(232,232,232, 0.8);}#container .labelBkg{background-color:rgba(232, 232, 232, 0.5);}#container .cluster rect{fill:#ffffde;stroke:#aaaa33;stroke-width:1px;}#container .cluster text{fill:#333;}#container .cluster span{color:#333;}#container div.mermaidTooltip{position:absolute;text-align:center;max-width:200px;padding:2px;font-family:"trebuchet ms",verdana,arial,sans-serif;font-size:12px;background:hsl(80, 100%, 96.2745098039%);border:1px solid #aaaa33;border-radius:2px;pointer-events:none;z-index:100;}#container .flowchartTitleText{text-anchor:middle;font-size:18px;fill:#333;}#container rect.text{fill:none;stroke-width:0;}#container .icon-shape,#container .image-shape{background-color:rgba(232,232,232, 0.8);text-align:center;}#container .icon-shape p,#container .image-shape p{background-color:rgba(232,232,232, 0.8);padding:2px;}#container .icon-shape .label rect,#container .image-shape .label rect{opacity:0.5;background-color:rgba(232,232,232, 0.8);fill:rgba(232,232,232, 0.8);}#container .label-icon{display:inline-block;height:1em;overflow:visible;vertical-align:-0.125em;}#container .node .label-icon path{fill:currentColor;stroke:revert;stroke-width:revert;}#container .node .neo-node{stroke:#9370DB;}#container [data-look="neo"].node rect,#container [data-look="neo"].cluster rect,#container [data-look="neo"].node polygon{stroke:#9370DB;filter:drop-shadow(1px 2px 2px rgba(185, 185, 185, 1));}#container [data-look="neo"].node path{stroke:#9370DB;stroke-width:1px;}#container [data-look="neo"].node .outer-path{filter:drop-shadow(1px 2px 2px rgba(185, 185, 185, 1));}#container [data-look="neo"].node .neo-line path{stroke:#9370DB;filter:none;}#container [data-look="neo"].node circle{stroke:#9370DB;filter:drop-shadow(1px 2px 2px rgba(185, 185, 185, 1));}#container [data-look="neo"].node circle .state-start{fill:#000000;}#container [data-look="neo"].icon-shape .icon{fill:#9370DB;filter:drop-shadow(1px 2px 2px rgba(185, 185, 185, 1));}#container [data-look="neo"].icon-shape .icon-neo path{stroke:#9370DB;filter:drop-shadow(1px 2px 2px rgba(185, 185, 185, 1));}#container :root{--mermaid-font-family:"trebuchet ms",verdana,arial,sans-serif;}</style><g><marker id="container_flowchart-v2-pointEnd" class="marker flowchart-v2" viewBox="0 0 10 10" refX="5" refY="5" markerUnits="userSpaceOnUse" markerWidth="8" markerHeight="8" orient="auto"><path d="M 0 0 L 10 5 L 0 10 z" class="arrowMarkerPath" style="stroke-width: 1; stroke-dasharray: 1, 0;"></path></marker><marker id="container_flowchart-v2-pointStart" class="marker flowchart-v2" viewBox="0 0 10 10" refX="4.5" refY="5" markerUnits="userSpaceOnUse" markerWidth="8" markerHeight="8" orient="auto"><path d="M 0 5 L 10 10 L 10 0 z" class="arrowMarkerPath" style="stroke-width: 1; stroke-dasharray: 1, 0;"></path></marker><marker id="container_flowchart-v2-pointEnd-margin" class="marker flowchart-v2" viewBox="0 0 11.5 14" refX="11.5" refY="7" markerUnits="userSpaceOnUse" markerWidth="10.5" markerHeight="14" orient="auto"><path d="M 0 0 L 11.5 7 L 0 14 z" class="arrowMarkerPath" style="stroke-width: 0; stroke-dasharray: 1, 0;"></path></marker><marker id="container_flowchart-v2-pointStart-margin" class="marker flowchart-v2" viewBox="0 0 11.5 14" refX="1" refY="7" markerUnits="userSpaceOnUse" markerWidth="11.5" markerHeight="14" orient="auto"><polygon points="0,7 11.5,14 11.5,0" class="arrowMarkerPath" style="stroke-width: 0; stroke-dasharray: 1, 0;"></polygon></marker><marker id="container_flowchart-v2-circleEnd" class="marker flowchart-v2" viewBox="0 0 10 10" refX="11" refY="5" markerUnits="userSpaceOnUse" markerWidth="11" markerHeight="11" orient="auto"><circle cx="5" cy="5" r="5" class="arrowMarkerPath" style="stroke-width: 1; stroke-dasharray: 1, 0;"></circle></marker><marker id="container_flowchart-v2-circleStart" class="marker flowchart-v2" viewBox="0 0 10 10" refX="-1" refY="5" markerUnits="userSpaceOnUse" markerWidth="11" markerHeight="11" orient="auto"><circle cx="5" cy="5" r="5" class="arrowMarkerPath" style="stroke-width: 1; stroke-dasharray: 1, 0;"></circle></marker><marker id="container_flowchart-v2-circleEnd-margin" class="marker flowchart-v2" viewBox="0 0 10 10" refY="5" refX="12.25" markerUnits="userSpaceOnUse" markerWidth="14" markerHeight="14" orient="auto"><circle cx="5" cy="5" r="5" class="arrowMarkerPath" style="stroke-width: 0; stroke-dasharray: 1, 0;"></circle></marker><marker id="container_flowchart-v2-circleStart-margin" class="marker flowchart-v2" viewBox="0 0 10 10" refX="-2" refY="5" markerUnits="userSpaceOnUse" markerWidth="14" markerHeight="14" orient="auto"><circle cx="5" cy="5" r="5" class="arrowMarkerPath" style="stroke-width: 0; stroke-dasharray: 1, 0;"></circle></marker><marker id="container_flowchart-v2-crossEnd" class="marker cross flowchart-v2" viewBox="0 0 11 11" refX="12" refY="5.2" markerUnits="userSpaceOnUse" markerWidth="11" markerHeight="11" orient="auto"><path d="M 1,1 l 9,9 M 10,1 l -9,9" class="arrowMarkerPath" style="stroke-width: 2; stroke-dasharray: 1, 0;"></path></marker><marker id="container_flowchart-v2-crossStart" class="marker cross flowchart-v2" viewBox="0 0 11 11" refX="-1" refY="5.2" markerUnits="userSpaceOnUse" markerWidth="11" markerHeight="11" orient="auto"><path d="M 1,1 l 9,9 M 10,1 l -9,9" class="arrowMarkerPath" style="stroke-width: 2; stroke-dasharray: 1, 0;"></path></marker><marker id="container_flowchart-v2-crossEnd-margin" class="marker cross flowchart-v2" viewBox="0 0 15 15" refX="17.7" refY="7.5" markerUnits="userSpaceOnUse" markerWidth="12" markerHeight="12" orient="auto"><path d="M 1,1 L 14,14 M 1,14 L 14,1" class="arrowMarkerPath" style="stroke-width: 2.5;"></path></marker><marker id="container_flowchart-v2-crossStart-margin" class="marker cross flowchart-v2" viewBox="0 0 15 15" refX="-3.5" refY="7.5" markerUnits="userSpaceOnUse" markerWidth="12" markerHeight="12" orient="auto"><path d="M 1,1 L 14,14 M 1,14 L 14,1" class="arrowMarkerPath" style="stroke-width: 2.5; stroke-dasharray: 1, 0;"></path></marker><g class="root"><g class="clusters"></g><g class="edgePaths"><path d="M263.695,62L250.094,66.167C236.493,70.333,209.291,78.667,195.69,86.333C182.089,94,182.089,101,182.089,104.5L182.089,108" id="container-L_reasoning_route1_0" class="edge-thickness-normal edge-pattern-solid edge-thickness-normal edge-pattern-solid flowchart-link" style=";" data-edge="true" data-et="edge" data-id="L_reasoning_route1_0" data-points="W3sieCI6MjYzLjY5NDUwMDI5OTYwMDQ2LCJ5Ijo2Mn0seyJ4IjoxODIuMDg4NzQwMzQ4ODE1OTIsInkiOjg3fSx7IngiOjE4Mi4wODg3NDAzNDg4MTU5MiwieSI6MTExLjk5OTk5OTk5OTk5OTk3fV0=" data-look="classic" marker-end="url(#container_flowchart-v2-pointEnd)"></path><path d="M150.086,229.294L141.456,240.795C132.826,252.295,115.565,275.296,106.935,292.296C98.305,309.297,98.305,320.297,98.305,325.797L98.305,331.297" id="container-L_route1_tool_execution_0" class="edge-thickness-normal edge-pattern-solid edge-thickness-normal edge-pattern-solid flowchart-link" style=";" data-edge="true" data-et="edge" data-id="L_route1_tool_execution_0" data-points="W3sieCI6MTUwLjA4NjEzNjE2ODYyODEsInkiOjIyOS4yOTQyNzA4MTk4MTIxN30seyJ4Ijo5OC4zMDQ2ODc1LCJ5IjoyOTguMjk2ODc1fSx7IngiOjk4LjMwNDY4NzUsInkiOjMzNS4yOTY4NzV9XQ==" data-look="classic" marker-end="url(#container_flowchart-v2-pointEnd)"></path><path d="M214.091,229.294L222.722,240.795C231.352,252.295,248.612,275.296,257.318,293.63C266.025,311.964,266.176,325.63,266.252,332.464L266.328,339.297" id="container-L_route1_END_0" class="edge-thickness-normal edge-pattern-solid edge-thickness-normal edge-pattern-solid flowchart-link" style=";" data-edge="true" data-et="edge" data-id="L_route1_END_0" data-points="W3sieCI6MjE0LjA5MTM0NDUyOTAwMzc1LCJ5IjoyMjkuMjk0MjcwODE5ODEyMTd9LHsieCI6MjY1Ljg3Mjc5MzE5NzYzMTg0LCJ5IjoyOTguMjk2ODc1fSx7IngiOjI2Ni4zNzI3OTMxOTc2MzE4NCwieSI6MzQzLjI5Njg3NX1d" data-look="classic" marker-end="url(#container_flowchart-v2-pointEnd)"></path><path d="M98.305,389.297L98.305,393.464C98.305,397.63,98.305,405.964,114.525,420.26C130.745,434.556,163.184,454.815,179.404,464.945L195.624,475.074" id="container-L_tool_execution_route2_0" class="edge-thickness-normal edge-pattern-solid edge-thickness-normal edge-pattern-solid flowchart-link" style=";" data-edge="true" data-et="edge" data-id="L_tool_execution_route2_0" data-points="W3sieCI6OTguMzA0Njg3NSwieSI6Mzg5LjI5Njg3NX0seyJ4Ijo5OC4zMDQ2ODc1LCJ5Ijo0MTQuMjk2ODc1fSx7IngiOjE5OS4wMTY5NTgzODkxNjE3NywieSI6NDc3LjE5Mjg3NTcwOTY1NDJ9XQ==" data-look="classic" marker-end="url(#container_flowchart-v2-pointEnd)"></path><path d="M236.913,562.422L236.913,568.589C236.913,574.755,236.913,587.089,241.164,598.89C245.414,610.691,253.915,621.96,258.166,627.594L262.417,633.229" id="container-L_route2_human_approval_0" class="edge-thickness-normal edge-pattern-solid edge-thickness-normal edge-pattern-solid flowchart-link" style=";" data-edge="true" data-et="edge" data-id="L_route2_human_approval_0" data-points="W3sieCI6MjM2LjkxMjk1OTA5ODgxNTkyLCJ5Ijo1NjIuNDIxODc1fSx7IngiOjIzNi45MTI5NTkwOTg4MTU5MiwieSI6NTk5LjQyMTg3NX0seyJ4IjoyNjQuODI1NTU2NzU1MDY1OSwieSI6NjM2LjQyMTg3NX1d" data-look="classic" marker-end="url(#container_flowchart-v2-pointEnd)"></path><path d="M272.026,474.41L285.326,464.391C298.627,454.372,325.228,434.335,338.528,415.649C351.829,396.964,351.829,379.63,351.829,360.297C351.829,340.964,351.829,319.63,351.829,290.355C351.829,261.081,351.829,223.865,351.829,188.648C351.829,153.432,351.829,120.216,351.829,100.108C351.829,80,351.829,73,351.829,69.5L351.829,66" id="container-L_route2_reasoning_0" class="edge-thickness-normal edge-pattern-solid edge-thickness-normal edge-pattern-solid flowchart-link" style=";" data-edge="true" data-et="edge" data-id="L_route2_reasoning_0" data-points="W3sieCI6MjcyLjAyNTkzNjE4Mzg1NjksInkiOjQ3NC40MDk4NTIwODUwNDF9LHsieCI6MzUxLjgyODcyMTA0NjQ0Nzc1LCJ5Ijo0MTQuMjk2ODc1fSx7IngiOjM1MS44Mjg3MjEwNDY0NDc3NSwieSI6MzYyLjI5Njg3NX0seyJ4IjozNTEuODI4NzIxMDQ2NDQ3NzUsInkiOjI5OC4yOTY4NzV9LHsieCI6MzUxLjgyODcyMTA0NjQ0Nzc1LCJ5IjoxODYuNjQ4NDM3NX0seyJ4IjozNTEuODI4NzIxMDQ2NDQ3NzUsInkiOjg3fSx7IngiOjM1MS44Mjg3MjEwNDY0NDc3NSwieSI6NjJ9XQ==" data-look="classic" marker-end="url(#container_flowchart-v2-pointEnd)"></path><path d="M340.032,636.422L352.557,630.255C365.081,624.089,390.131,611.755,402.656,589.161C415.18,566.568,415.18,533.714,415.18,502.859C415.18,472.005,415.18,443.151,415.18,420.057C415.18,396.964,415.18,379.63,415.18,360.297C415.18,340.964,415.18,319.63,415.18,290.355C415.18,261.081,415.18,223.865,415.18,188.648C415.18,153.432,415.18,120.216,410.619,99.864C406.058,79.513,396.937,72.025,392.376,68.282L387.815,64.538" id="container-L_human_approval_reasoning_0" class="edge-thickness-normal edge-pattern-solid edge-thickness-normal edge-pattern-solid flowchart-link" style=";" data-edge="true" data-et="edge" data-id="L_human_approval_reasoning_0" data-points="W3sieCI6MzQwLjAzMjA4NDI1NjQxMDYsInkiOjYzNi40MjE4NzV9LHsieCI6NDE1LjE4MDI4MzU0NjQ0Nzc1LCJ5Ijo1OTkuNDIxODc1fSx7IngiOjQxNS4xODAyODM1NDY0NDc3NSwieSI6NTAwLjg1OTM3NX0seyJ4Ijo0MTUuMTgwMjgzNTQ2NDQ3NzUsInkiOjQxNC4yOTY4NzV9LHsieCI6NDE1LjE4MDI4MzU0NjQ0Nzc1LCJ5IjozNjIuMjk2ODc1fSx7IngiOjQxNS4xODAyODM1NDY0NDc3NSwieSI6Mjk4LjI5Njg3NX0seyJ4Ijo0MTUuMTgwMjgzNTQ2NDQ3NzUsInkiOjE4Ni42NDg0Mzc1fSx7IngiOjQxNS4xODAyODM1NDY0NDc3NSwieSI6ODd9LHsieCI6Mzg0LjcyMjgwMTU3NTI5MzksInkiOjYyfV0=" data-look="classic" marker-end="url(#container_flowchart-v2-pointEnd)"></path></g><g class="edgeLabels"><g class="edgeLabel"><g class="label" data-id="L_reasoning_route1_0" transform="translate(0, 0)"><foreignObject width="0" height="0"><div xmlns="http://www.w3.org/1999/xhtml" class="labelBkg" style="display: table-cell; white-space: nowrap; line-height: 1.5; max-width: 200px; text-align: center;"><span class="edgeLabel"></span></div></foreignObject></g></g><g class="edgeLabel" transform="translate(98.3046875, 298.296875)"><g class="label" data-id="L_route1_tool_execution_0" transform="translate(-12.03125, -12)"><foreignObject width="24.0625" height="24"><div xmlns="http://www.w3.org/1999/xhtml" class="labelBkg" style="display: table-cell; white-space: nowrap; line-height: 1.5; max-width: 200px; text-align: center;"><span class="edgeLabel"><p>Yes</p></span></div></foreignObject></g></g><g class="edgeLabel" transform="translate(265.87279319763184, 298.296875)"><g class="label" data-id="L_route1_END_0" transform="translate(-10.140625, -12)"><foreignObject width="20.28125" height="24"><div xmlns="http://www.w3.org/1999/xhtml" class="labelBkg" style="display: table-cell; white-space: nowrap; line-height: 1.5; max-width: 200px; text-align: center;"><span class="edgeLabel"><p>No</p></span></div></foreignObject></g></g><g class="edgeLabel"><g class="label" data-id="L_tool_execution_route2_0" transform="translate(0, 0)"><foreignObject width="0" height="0"><div xmlns="http://www.w3.org/1999/xhtml" class="labelBkg" style="display: table-cell; white-space: nowrap; line-height: 1.5; max-width: 200px; text-align: center;"><span class="edgeLabel"></span></div></foreignObject></g></g><g class="edgeLabel" transform="translate(236.91295909881592, 599.421875)"><g class="label" data-id="L_route2_human_approval_0" transform="translate(-12.03125, -12)"><foreignObject width="24.0625" height="24"><div xmlns="http://www.w3.org/1999/xhtml" class="labelBkg" style="display: table-cell; white-space: nowrap; line-height: 1.5; max-width: 200px; text-align: center;"><span class="edgeLabel"><p>Yes</p></span></div></foreignObject></g></g><g class="edgeLabel" transform="translate(351.82872104644775, 298.296875)"><g class="label" data-id="L_route2_reasoning_0" transform="translate(-10.140625, -12)"><foreignObject width="20.28125" height="24"><div xmlns="http://www.w3.org/1999/xhtml" class="labelBkg" style="display: table-cell; white-space: nowrap; line-height: 1.5; max-width: 200px; text-align: center;"><span class="edgeLabel"><p>No</p></span></div></foreignObject></g></g><g class="edgeLabel"><g class="label" data-id="L_human_approval_reasoning_0" transform="translate(0, 0)"><foreignObject width="0" height="0"><div xmlns="http://www.w3.org/1999/xhtml" class="labelBkg" style="display: table-cell; white-space: nowrap; line-height: 1.5; max-width: 200px; text-align: center;"><span class="edgeLabel"></span></div></foreignObject></g></g></g><g class="nodes"><g class="node default" id="container-flowchart-reasoning-0" data-look="classic" transform="translate(351.82872104644775, 35)"><rect class="basic label-container" style="" x="-96.34375" y="-27" width="192.6875" height="54"></rect><g class="label" style="" transform="translate(-66.34375, -12)"><rect></rect><foreignObject width="132.6875" height="24"><div xmlns="http://www.w3.org/1999/xhtml" style="display: table-cell; white-space: nowrap; line-height: 1.5; max-width: 200px; text-align: center;"><span class="nodeLabel"><p>🤖 Reasoning (LLM)</p></span></div></foreignObject></g></g><g class="node default" id="container-flowchart-route1-1" data-look="classic" transform="translate(182.08874034881592, 186.6484375)"><polygon points="74.6484375,0 149.296875,-74.6484375 74.6484375,-149.296875 0,-74.6484375" class="label-container" transform="translate(-74.1484375, 74.6484375)"></polygon><g class="label" style="" transform="translate(-47.6484375, -12)"><rect></rect><foreignObject width="95.296875" height="24"><div xmlns="http://www.w3.org/1999/xhtml" style="display: table-cell; white-space: nowrap; line-height: 1.5; max-width: 200px; text-align: center;"><span class="nodeLabel"><p>has tool call?</p></span></div></foreignObject></g></g><g class="node default" id="container-flowchart-tool_execution-3" data-look="classic" transform="translate(98.3046875, 362.296875)"><rect class="basic label-container" style="" x="-90.3046875" y="-27" width="180.609375" height="54"></rect><g class="label" style="" transform="translate(-60.3046875, -12)"><rect></rect><foreignObject width="120.609375" height="24"><div xmlns="http://www.w3.org/1999/xhtml" style="display: table-cell; white-space: nowrap; line-height: 1.5; max-width: 200px; text-align: center;"><span class="nodeLabel"><p>🔧 Tool Execution</p></span></div></foreignObject></g></g><g class="node default" id="container-flowchart-END-5" data-look="classic" transform="translate(265.87279319763184, 362.296875)"><g class="basic label-container outer-path"><path d="M-7.7734375 -19.5 C-3.541196921001105 -19.5, 0.6910436579977901 -19.5, 7.7734375 -19.5 C7.7734375 -19.5, 7.7734375 -19.5, 7.773437499999999 -19.5 C8.210569664883108 -19.48598202229834, 8.647701829766218 -19.47196404459668, 9.0228067896239 -19.45993515863156 C9.417358699246726 -19.42187321042834, 9.811910608869553 -19.383811262225123, 10.267042152847864 -19.3399052695533 C10.557556385646937 -19.29293718136587, 10.848070618446007 -19.245969093178438, 11.501030759676757 -19.140403561325776 C11.904093183898171 -19.048407193225362, 12.307155608119585 -18.95641082512495, 12.71970188623539 -18.862249829261074 C12.991053981206536 -18.78171395182985, 13.262406076177683 -18.701178074398626, 13.918047751460602 -18.50658706670804 C14.269834022509258 -18.377126467085493, 14.621620293557912 -18.247665867462945, 15.091144095147794 -18.074876768247425 C15.494172622083088 -17.896467994789646, 15.89720114901838 -17.718059221331867, 16.23417041279238 -17.568892924097174 C16.48221322964653 -17.439489145423373, 16.730256046500678 -17.31008536674957, 17.342429764076783 -16.990714730406097 C17.693526136789885 -16.777878045996108, 18.04462250950299 -16.56504136158612, 18.411368073605697 -16.342718045390892 C18.817415964915245 -16.059476613943268, 19.22346385622479 -15.776235182495643, 19.436592844578712 -15.627565626425154 C19.77391967655433 -15.358556454568594, 20.11124650852994 -15.089547282712035, 20.41389120850187 -14.848196188198123 C20.674336935260573 -14.611666270172183, 20.934782662019277 -14.375136352146244, 21.339247236767985 -14.007812326905688 C21.55855238973394 -13.781361751180427, 21.777857542699895 -13.554911175455167, 22.208858442968648 -13.10986736009568 C22.407307169945902 -12.876758193335743, 22.605755896923156 -12.643649026575806, 23.019151408126582 -12.158051136245305 C23.19263387606142 -11.925600433790578, 23.366116343996264 -11.693149731335849, 23.766796464640635 -11.156274872382312 C23.956670072089153 -10.864578023138765, 24.146543679537672 -10.57288117389522, 24.448721378604247 -10.108655082055241 C24.670905077650023 -9.714145425860282, 24.893088776695794 -9.319635769665325, 25.0621239742735 -9.019496659696287 C25.204729513725262 -8.723373205754964, 25.347335053177023 -8.42724975181364, 25.60448364880834 -7.893275190886684 C25.77079811376377 -7.482475246975335, 25.937112578719205 -7.071675303063985, 26.073571729970325 -6.734618561215508 C26.227945723658173 -6.2696686883833745, 26.382319717346025 -5.80471881555124, 26.46746063421488 -5.548287939305138 C26.559313797209366 -5.198012019394502, 26.651166960203852 -4.847736099483867, 26.78453178754556 -4.339158212148133 C26.841818973621105 -4.045000619301284, 26.899106159696647 -3.7508430264544352, 27.023482276581777 -3.1121979531509023 C27.063438173814372 -2.802307904399246, 27.103394071046967 -2.4924178556475898, 27.183330202509367 -1.872449005199798 C27.207092470374935 -1.5023325026361736, 27.230854738240502 -1.1322160000725492, 27.263418715913414 -0.6250057626472757 C27.263418715913414 -0.2339956286896261, 27.263418715913414 0.15701450526802352, 27.263418715913414 0.625005762647271 C27.244692063545088 0.9166884891656913, 27.22596541117676 1.2083712156841115, 27.183330202509367 1.8724490051997846 C27.124869392459882 2.3258595035508813, 27.0664085824104 2.779270001901978, 27.023482276581777 3.1121979531508885 C26.94312587770767 3.5248110780385304, 26.862769478833556 3.937424202926173, 26.78453178754556 4.339158212148129 C26.658645589593696 4.819216844361901, 26.532759391641836 5.299275476575673, 26.467460634214884 5.548287939305125 C26.341166396840496 5.9286660600227155, 26.214872159466108 6.309044180740305, 26.07357172997033 6.734618561215495 C25.902068713412348 7.158234327898962, 25.730565696854367 7.58185009458243, 25.604483648808344 7.893275190886679 C25.4291517322457 8.257355667131044, 25.25381981568306 8.621436143375409, 25.062123974273504 9.019496659696284 C24.8691926965829 9.362065679646273, 24.676261418892295 9.70463469959626, 24.44872137860425 10.108655082055236 C24.193646539956408 10.500518531403007, 23.938571701308568 10.892381980750779, 23.76679646464064 11.156274872382301 C23.508011757375478 11.503022804345788, 23.249227050110317 11.849770736309276, 23.019151408126582 12.158051136245302 C22.784194207651332 12.434045233366975, 22.549237007176085 12.71003933048865, 22.20885844296866 13.10986736009567 C22.02111557832362 13.303727281817519, 21.833372713678585 13.49758720353937, 21.33924723676799 14.007812326905684 C21.143884166337944 14.185235898446662, 20.9485210959079 14.362659469987639, 20.413891208501887 14.848196188198111 C20.16717054562043 15.0449493513335, 19.920449882738975 15.241702514468889, 19.436592844578715 15.627565626425152 C19.057969065995866 15.891677184005339, 18.67934528741302 16.155788741585525, 18.411368073605708 16.34271804539089 C18.13739822921514 16.508800175085966, 17.863428384824577 16.674882304781043, 17.342429764076787 16.990714730406093 C17.039147753516268 17.148936761054117, 16.735865742955745 17.307158791702143, 16.234170412792388 17.56889292409717 C15.969185433091791 17.686193914110486, 15.704200453391195 17.803494904123802, 15.091144095147804 18.07487676824742 C14.647543353460389 18.238125941788695, 14.203942611772973 18.401375115329966, 13.918047751460616 18.506587066708033 C13.66258722919457 18.58240640877695, 13.407126706928521 18.65822575084587, 12.719701886235413 18.86224982926107 C12.38750891323654 18.938070707586327, 12.055315940237666 19.013891585911583, 11.501030759676766 19.140403561325773 C11.158186589318708 19.195831947993014, 10.815342418960649 19.251260334660255, 10.267042152847878 19.3399052695533 C9.787214002599585 19.38619371412997, 9.307385852351292 19.432482158706645, 9.0228067896239 19.45993515863156 C8.618073816749943 19.472914157306686, 8.213340843875987 19.485893155981813, 7.7734375000000036 19.5 C7.773437500000003 19.5, 7.773437500000002 19.5, 7.7734375 19.5 C2.045646449316478 19.5, -3.6821446013670442 19.5, -7.7734374999999964 19.5 C-8.120966071997715 19.488855435119362, -8.468494643995433 19.477710870238724, -9.022806789623893 19.45993515863156 C-9.483232329193445 19.41551846057201, -9.943657868762996 19.371101762512463, -10.267042152847871 19.3399052695533 C-10.632874497139225 19.280760333200472, -10.998706841430579 19.22161539684765, -11.501030759676759 19.140403561325773 C-11.872858037592481 19.055536411541258, -12.244685315508205 18.97066926175674, -12.719701886235388 18.862249829261074 C-13.1710746601142 18.728284759277884, -13.622447433993013 18.59431968929469, -13.918047751460593 18.506587066708043 C-14.31217496906304 18.361544607358283, -14.706302186665486 18.21650214800852, -15.091144095147797 18.074876768247425 C-15.354562071225393 17.9582694442545, -15.617980047302991 17.841662120261574, -16.23417041279238 17.568892924097174 C-16.53476030523505 17.412075369746848, -16.835350197677716 17.255257815396526, -17.34242976407678 16.990714730406097 C-17.637812446823737 16.811652012263572, -17.93319512957069 16.632589294121043, -18.411368073605686 16.3427180453909 C-18.626750322051826 16.19247671262214, -18.842132570497963 16.042235379853373, -19.436592844578712 15.627565626425156 C-19.682721667096324 15.4312844402304, -19.92885048961394 15.235003254035641, -20.41389120850187 14.848196188198125 C-20.742961695856497 14.549343078310635, -21.07203218321112 14.250489968423144, -21.339247236767974 14.007812326905697 C-21.542613856479857 13.797819595343185, -21.74598047619174 13.587826863780672, -22.208858442968655 13.109867360095677 C-22.448117899509374 12.828819588194195, -22.687377356050096 12.547771816292713, -23.01915140812658 12.158051136245307 C-23.18128081936873 11.940812495474043, -23.34341023061088 11.723573854702781, -23.766796464640635 11.156274872382316 C-24.000149454488533 10.797782015924373, -24.233502444336434 10.439289159466432, -24.448721378604244 10.108655082055249 C-24.659723404524357 9.733999618762082, -24.870725430444473 9.359344155468916, -25.0621239742735 9.019496659696289 C-25.186446047733458 8.76133921409045, -25.310768121193416 8.503181768484612, -25.60448364880834 7.893275190886686 C-25.761428173815254 7.505619179803646, -25.918372698822164 7.117963168720606, -26.073571729970325 6.73461856121551 C-26.166152825242655 6.455779053049585, -26.258733920514985 6.17693954488366, -26.46746063421488 5.5482879393051325 C-26.5372931280209 5.281986374828519, -26.607125621826917 5.015684810351905, -26.784531787545557 4.339158212148136 C-26.85109574989964 3.997366333758363, -26.91765971225372 3.6555744553685905, -27.023482276581777 3.112197953150904 C-27.064417869402067 2.794709578883863, -27.105353462222357 2.4772212046168223, -27.183330202509364 1.872449005199809 C-27.205522211506356 1.5267905520044371, -27.227714220503344 1.1811320988090652, -27.263418715913414 0.6250057626472781 C-27.263418715913414 0.30539872768391046, -27.263418715913414 -0.01420830727945721, -27.263418715913414 -0.6250057626472687 C-27.237767957022694 -1.0245370372901452, -27.212117198131974 -1.4240683119330215, -27.183330202509367 -1.8724490051997822 C-27.122502145066807 -2.344219406865697, -27.06167408762425 -2.8159898085316115, -27.023482276581777 -3.112197953150895 C-26.9361292168069 -3.5607374530191658, -26.848776157032024 -4.009276952887436, -26.78453178754556 -4.339158212148126 C-26.7053670879037 -4.641047522080403, -26.626202388261838 -4.94293683201268, -26.467460634214884 -5.548287939305123 C-26.324302427930842 -5.979457647470033, -26.1811442216468 -6.4106273556349445, -26.073571729970332 -6.734618561215485 C-25.969618052231837 -6.991386155037202, -25.865664374493342 -7.248153748858918, -25.604483648808344 -7.893275190886676 C-25.402951850298074 -8.311760282582956, -25.201420051787807 -8.730245374279235, -25.062123974273504 -9.019496659696282 C-24.874228255448436 -9.353124534974883, -24.686332536623368 -9.686752410253485, -24.448721378604247 -10.108655082055243 C-24.203012813918825 -10.48612941940002, -23.957304249233403 -10.863603756744796, -23.76679646464064 -11.156274872382308 C-23.544359985902343 -11.45431948951154, -23.32192350716404 -11.752364106640771, -23.019151408126586 -12.158051136245302 C-22.810804989865055 -12.40278669438234, -22.602458571603524 -12.647522252519378, -22.208858442968662 -13.10986736009567 C-21.89726739023474 -13.431610704144633, -21.58567633750082 -13.753354048193597, -21.339247236767996 -14.007812326905677 C-21.125726365417552 -14.201726332813474, -20.91220549406711 -14.39564033872127, -20.413891208501887 -14.848196188198107 C-20.078326034603027 -15.115800484618147, -19.742760860704166 -15.383404781038186, -19.43659284457872 -15.627565626425149 C-19.04946769830995 -15.897607370084756, -18.662342552041185 -16.167649113744364, -18.41136807360571 -16.342718045390885 C-18.15540785949104 -16.49788263137638, -17.89944764537637 -16.653047217361873, -17.34242976407679 -16.99071473040609 C-17.023109488578253 -17.15730391359928, -16.703789213079716 -17.323893096792467, -16.234170412792388 -17.56889292409717 C-15.930146772831328 -17.70347517096708, -15.62612313287027 -17.838057417836993, -15.091144095147806 -18.07487676824742 C-14.805120103012205 -18.18013624133012, -14.519096110876605 -18.28539571441282, -13.918047751460618 -18.506587066708033 C-13.474896012307159 -18.63811217673783, -13.031744273153699 -18.769637286767633, -12.719701886235413 -18.862249829261067 C-12.454138328345975 -18.92286297838516, -12.188574770456539 -18.98347612750926, -11.501030759676768 -19.140403561325773 C-11.196633921109349 -19.189616081552614, -10.89223708254193 -19.238828601779456, -10.26704215284788 -19.3399052695533 C-9.851041745916481 -19.38003632849628, -9.435041338985084 -19.420167387439268, -9.022806789623903 -19.45993515863156 C-8.709296170500851 -19.469988833975435, -8.395785551377799 -19.48004250931931, -7.773437500000006 -19.5 C-7.773437500000004 -19.5, -7.773437500000003 -19.5, -7.7734375 -19.5" stroke="none" stroke-width="0" fill="#ECECFF" style=""></path><path d="M-7.7734375 -19.5 C-4.283677939141251 -19.5, -0.793918378282501 -19.5, 7.7734375 -19.5 M-7.7734375 -19.5 C-3.1573431559517235 -19.5, 1.458751188096553 -19.5, 7.7734375 -19.5 M7.7734375 -19.5 C7.7734375 -19.5, 7.773437499999999 -19.5, 7.773437499999999 -19.5 M7.7734375 -19.5 C7.7734375 -19.5, 7.773437499999999 -19.5, 7.773437499999999 -19.5 M7.773437499999999 -19.5 C8.077953496480003 -19.490234764697316, 8.382469492960006 -19.480469529394632, 9.0228067896239 -19.45993515863156 M7.773437499999999 -19.5 C8.089969319609114 -19.489849440636945, 8.406501139218229 -19.479698881273894, 9.0228067896239 -19.45993515863156 M9.0228067896239 -19.45993515863156 C9.504653228513884 -19.41345201217697, 9.986499667403871 -19.366968865722377, 10.267042152847864 -19.3399052695533 M9.0228067896239 -19.45993515863156 C9.481943457406834 -19.41564279648317, 9.941080125189767 -19.371350434334783, 10.267042152847864 -19.3399052695533 M10.267042152847864 -19.3399052695533 C10.59513969569248 -19.28686100326063, 10.923237238537096 -19.233816736967956, 11.501030759676757 -19.140403561325776 M10.267042152847864 -19.3399052695533 C10.671298333237939 -19.274548265361332, 11.075554513628013 -19.20919126116937, 11.501030759676757 -19.140403561325776 M11.501030759676757 -19.140403561325776 C11.904025793898482 -19.048422574553033, 12.307020828120207 -18.956441587780287, 12.71970188623539 -18.862249829261074 M11.501030759676757 -19.140403561325776 C11.777643844131545 -19.077268429868038, 12.054256928586332 -19.014133298410304, 12.71970188623539 -18.862249829261074 M12.71970188623539 -18.862249829261074 C13.15863848995307 -18.731975749302915, 13.597575093670752 -18.60170166934476, 13.918047751460602 -18.50658706670804 M12.71970188623539 -18.862249829261074 C13.008119467115147 -18.776649005190738, 13.296537047994903 -18.691048181120404, 13.918047751460602 -18.50658706670804 M13.918047751460602 -18.50658706670804 C14.34594325026254 -18.349117567726296, 14.773838749064476 -18.191648068744552, 15.091144095147794 -18.074876768247425 M13.918047751460602 -18.50658706670804 C14.264594179049569 -18.37905477791524, 14.611140606638534 -18.25152248912244, 15.091144095147794 -18.074876768247425 M15.091144095147794 -18.074876768247425 C15.351661786652215 -17.95955331420116, 15.612179478156637 -17.844229860154897, 16.23417041279238 -17.568892924097174 M15.091144095147794 -18.074876768247425 C15.333575754487713 -17.967559464137302, 15.576007413827634 -17.86024216002718, 16.23417041279238 -17.568892924097174 M16.23417041279238 -17.568892924097174 C16.53911098912675 -17.409805620747292, 16.844051565461125 -17.250718317397414, 17.342429764076783 -16.990714730406097 M16.23417041279238 -17.568892924097174 C16.535440691624306 -17.411720412603383, 16.83671097045623 -17.254547901109593, 17.342429764076783 -16.990714730406097 M17.342429764076783 -16.990714730406097 C17.682221633190668 -16.78473090251059, 18.022013502304556 -16.578747074615084, 18.411368073605697 -16.342718045390892 M17.342429764076783 -16.990714730406097 C17.763470084260085 -16.735477614003415, 18.184510404443383 -16.48024049760073, 18.411368073605697 -16.342718045390892 M18.411368073605697 -16.342718045390892 C18.806351062444097 -16.06719501091523, 19.201334051282494 -15.791671976439574, 19.436592844578712 -15.627565626425154 M18.411368073605697 -16.342718045390892 C18.71161987922121 -16.13327538348469, 19.011871684836724 -15.923832721578487, 19.436592844578712 -15.627565626425154 M19.436592844578712 -15.627565626425154 C19.76099216642144 -15.36886579988408, 20.085391488264165 -15.110165973343008, 20.41389120850187 -14.848196188198123 M19.436592844578712 -15.627565626425154 C19.69717941046915 -15.419754774627279, 19.957765976359585 -15.211943922829404, 20.41389120850187 -14.848196188198123 M20.41389120850187 -14.848196188198123 C20.65729720880538 -14.627141298892331, 20.900703209108894 -14.40608640958654, 21.339247236767985 -14.007812326905688 M20.41389120850187 -14.848196188198123 C20.66502186556248 -14.620125970008754, 20.91615252262309 -14.392055751819383, 21.339247236767985 -14.007812326905688 M21.339247236767985 -14.007812326905688 C21.61791972413475 -13.720060104262789, 21.896592211501517 -13.43230788161989, 22.208858442968648 -13.10986736009568 M21.339247236767985 -14.007812326905688 C21.596696271162525 -13.741975061934506, 21.85414530555707 -13.476137796963323, 22.208858442968648 -13.10986736009568 M22.208858442968648 -13.10986736009568 C22.42551028025405 -12.85537578418148, 22.642162117539446 -12.600884208267276, 23.019151408126582 -12.158051136245305 M22.208858442968648 -13.10986736009568 C22.38122126645795 -12.90740017990265, 22.553584089947254 -12.704932999709618, 23.019151408126582 -12.158051136245305 M23.019151408126582 -12.158051136245305 C23.256129057660495 -11.840522674977862, 23.49310670719441 -11.522994213710419, 23.766796464640635 -11.156274872382312 M23.019151408126582 -12.158051136245305 C23.249009641105634 -11.850062044569185, 23.47886787408469 -11.542072952893063, 23.766796464640635 -11.156274872382312 M23.766796464640635 -11.156274872382312 C23.98444144868778 -10.821913731024491, 24.20208643273492 -10.487552589666672, 24.448721378604247 -10.108655082055241 M23.766796464640635 -11.156274872382312 C23.93109817363747 -10.90386332617676, 24.095399882634304 -10.651451779971207, 24.448721378604247 -10.108655082055241 M24.448721378604247 -10.108655082055241 C24.588519531099536 -9.860429306201885, 24.72831768359482 -9.612203530348529, 25.0621239742735 -9.019496659696287 M24.448721378604247 -10.108655082055241 C24.64459479877962 -9.760861990199311, 24.840468218954996 -9.41306889834338, 25.0621239742735 -9.019496659696287 M25.0621239742735 -9.019496659696287 C25.182012431194895 -8.770545713696972, 25.30190088811629 -8.521594767697657, 25.60448364880834 -7.893275190886684 M25.0621239742735 -9.019496659696287 C25.22769137925487 -8.675692400677512, 25.39325878423624 -8.331888141658737, 25.60448364880834 -7.893275190886684 M25.60448364880834 -7.893275190886684 C25.73277896877907 -7.576383270137713, 25.8610742887498 -7.259491349388741, 26.073571729970325 -6.734618561215508 M25.60448364880834 -7.893275190886684 C25.78453902466892 -7.448534931377186, 25.964594400529496 -7.003794671867688, 26.073571729970325 -6.734618561215508 M26.073571729970325 -6.734618561215508 C26.21660565469959 -6.30382316929202, 26.359639579428848 -5.873027777368532, 26.46746063421488 -5.548287939305138 M26.073571729970325 -6.734618561215508 C26.21721431072782 -6.3019899943111595, 26.36085689148531 -5.869361427406811, 26.46746063421488 -5.548287939305138 M26.46746063421488 -5.548287939305138 C26.559065479083593 -5.198958964029835, 26.650670323952305 -4.849629988754532, 26.78453178754556 -4.339158212148133 M26.46746063421488 -5.548287939305138 C26.543401005241265 -5.258694391816536, 26.61934137626765 -4.969100844327933, 26.78453178754556 -4.339158212148133 M26.78453178754556 -4.339158212148133 C26.87072971706651 -3.8965500619969062, 26.956927646587463 -3.4539419118456793, 27.023482276581777 -3.1121979531509023 M26.78453178754556 -4.339158212148133 C26.857872238224367 -3.9625704984222043, 26.931212688903173 -3.5859827846962755, 27.023482276581777 -3.1121979531509023 M27.023482276581777 -3.1121979531509023 C27.082247845580333 -2.656423804572266, 27.14101341457889 -2.2006496559936295, 27.183330202509367 -1.872449005199798 M27.023482276581777 -3.1121979531509023 C27.073577945721812 -2.72366583580958, 27.123673614861847 -2.335133718468258, 27.183330202509367 -1.872449005199798 M27.183330202509367 -1.872449005199798 C27.212091210549417 -1.424473089508186, 27.240852218589463 -0.9764971738165743, 27.263418715913414 -0.6250057626472757 M27.183330202509367 -1.872449005199798 C27.204616937196715 -1.5408909301013487, 27.225903671884065 -1.2093328550028994, 27.263418715913414 -0.6250057626472757 M27.263418715913414 -0.6250057626472757 C27.263418715913414 -0.12657436368921116, 27.263418715913414 0.3718570352688534, 27.263418715913414 0.625005762647271 M27.263418715913414 -0.6250057626472757 C27.263418715913414 -0.37144469910752387, 27.263418715913414 -0.11788363556777204, 27.263418715913414 0.625005762647271 M27.263418715913414 0.625005762647271 C27.23292338459493 1.099995163321041, 27.20242805327645 1.574984563994811, 27.183330202509367 1.8724490051997846 M27.263418715913414 0.625005762647271 C27.23620451484346 1.0488889112195372, 27.208990313773505 1.4727720597918035, 27.183330202509367 1.8724490051997846 M27.183330202509367 1.8724490051997846 C27.1363546428306 2.2367821696948265, 27.08937908315183 2.6011153341898683, 27.023482276581777 3.1121979531508885 M27.183330202509367 1.8724490051997846 C27.14009020285111 2.20780990384552, 27.096850203192847 2.5431708024912556, 27.023482276581777 3.1121979531508885 M27.023482276581777 3.1121979531508885 C26.970337566266316 3.385084808482275, 26.91719285595086 3.6579716638136612, 26.78453178754556 4.339158212148129 M27.023482276581777 3.1121979531508885 C26.953725897401622 3.4703822172250267, 26.883969518221466 3.828566481299165, 26.78453178754556 4.339158212148129 M26.78453178754556 4.339158212148129 C26.67077129726707 4.772976265688386, 26.55701080698858 5.206794319228642, 26.467460634214884 5.548287939305125 M26.78453178754556 4.339158212148129 C26.670709207230903 4.773213041906282, 26.556886626916246 5.207267871664436, 26.467460634214884 5.548287939305125 M26.467460634214884 5.548287939305125 C26.369914001096404 5.842082856312638, 26.272367367977925 6.13587777332015, 26.07357172997033 6.734618561215495 M26.467460634214884 5.548287939305125 C26.325971408834082 5.974430942905467, 26.18448218345328 6.40057394650581, 26.07357172997033 6.734618561215495 M26.07357172997033 6.734618561215495 C25.910199579458936 7.138150931564287, 25.746827428947547 7.5416833019130785, 25.604483648808344 7.893275190886679 M26.07357172997033 6.734618561215495 C25.957419865813968 7.021515911325229, 25.84126800165761 7.3084132614349615, 25.604483648808344 7.893275190886679 M25.604483648808344 7.893275190886679 C25.482154435157877 8.147294420457744, 25.35982522150741 8.401313650028808, 25.062123974273504 9.019496659696284 M25.604483648808344 7.893275190886679 C25.47317838116501 8.165933388630718, 25.34187311352168 8.438591586374757, 25.062123974273504 9.019496659696284 M25.062123974273504 9.019496659696284 C24.90760514461025 9.293860488491568, 24.753086314946994 9.568224317286854, 24.44872137860425 10.108655082055236 M25.062123974273504 9.019496659696284 C24.87514017921311 9.351505321988416, 24.688156384152713 9.68351398428055, 24.44872137860425 10.108655082055236 M24.44872137860425 10.108655082055236 C24.240595197167995 10.428392786446338, 24.03246901573174 10.74813049083744, 23.76679646464064 11.156274872382301 M24.44872137860425 10.108655082055236 C24.28722380681059 10.356758720500439, 24.125726235016934 10.604862358945642, 23.76679646464064 11.156274872382301 M23.76679646464064 11.156274872382301 C23.479442783271825 11.541302626957602, 23.192089101903008 11.926330381532905, 23.019151408126582 12.158051136245302 M23.76679646464064 11.156274872382301 C23.548441907144156 11.448850086918178, 23.33008734964767 11.741425301454054, 23.019151408126582 12.158051136245302 M23.019151408126582 12.158051136245302 C22.795456212991297 12.420816241068394, 22.571761017856016 12.683581345891488, 22.20885844296866 13.10986736009567 M23.019151408126582 12.158051136245302 C22.714851813627444 12.515498755081433, 22.410552219128306 12.872946373917564, 22.20885844296866 13.10986736009567 M22.20885844296866 13.10986736009567 C21.952801153823195 13.374267533832768, 21.69674386467773 13.638667707569867, 21.33924723676799 14.007812326905684 M22.20885844296866 13.10986736009567 C22.00442096098525 13.320965844872964, 21.79998347900184 13.532064329650256, 21.33924723676799 14.007812326905684 M21.33924723676799 14.007812326905684 C21.10557341433979 14.220028709764431, 20.871899591911596 14.432245092623178, 20.413891208501887 14.848196188198111 M21.33924723676799 14.007812326905684 C21.050329132935737 14.270200104452005, 20.761411029103485 14.532587881998328, 20.413891208501887 14.848196188198111 M20.413891208501887 14.848196188198111 C20.18577925787976 15.030109398505317, 19.957667307257626 15.212022608812523, 19.436592844578715 15.627565626425152 M20.413891208501887 14.848196188198111 C20.175666739699352 15.03817386264878, 19.937442270896813 15.22815153709945, 19.436592844578715 15.627565626425152 M19.436592844578715 15.627565626425152 C19.078811563043974 15.877138360321736, 18.72103028150923 16.12671109421832, 18.411368073605708 16.34271804539089 M19.436592844578715 15.627565626425152 C19.16339977799308 15.818133283338046, 18.890206711407448 16.00870094025094, 18.411368073605708 16.34271804539089 M18.411368073605708 16.34271804539089 C18.16489098681585 16.492133903863042, 17.918413900025985 16.641549762335192, 17.342429764076787 16.990714730406093 M18.411368073605708 16.34271804539089 C18.12472530339991 16.51648257718954, 17.838082533194108 16.69024710898819, 17.342429764076787 16.990714730406093 M17.342429764076787 16.990714730406093 C17.033729162187587 17.151763636679515, 16.725028560298387 17.31281254295294, 16.234170412792388 17.56889292409717 M17.342429764076787 16.990714730406093 C17.00028807514109 17.169209830371635, 16.658146386205395 17.347704930337176, 16.234170412792388 17.56889292409717 M16.234170412792388 17.56889292409717 C15.967270153380971 17.687041751623713, 15.700369893969553 17.805190579150253, 15.091144095147804 18.07487676824742 M16.234170412792388 17.56889292409717 C15.836329573170286 17.745005262268677, 15.438488733548185 17.921117600440184, 15.091144095147804 18.07487676824742 M15.091144095147804 18.07487676824742 C14.628372674501014 18.245180928857557, 14.165601253854222 18.415485089467694, 13.918047751460616 18.506587066708033 M15.091144095147804 18.07487676824742 C14.693985886756705 18.221034660225577, 14.296827678365606 18.367192552203736, 13.918047751460616 18.506587066708033 M13.918047751460616 18.506587066708033 C13.517117020423353 18.62558120315154, 13.11618628938609 18.74457533959505, 12.719701886235413 18.86224982926107 M13.918047751460616 18.506587066708033 C13.488495566227092 18.634075900519914, 13.058943380993567 18.76156473433179, 12.719701886235413 18.86224982926107 M12.719701886235413 18.86224982926107 C12.370048780844574 18.94205586886678, 12.020395675453736 19.02186190847249, 11.501030759676766 19.140403561325773 M12.719701886235413 18.86224982926107 C12.328031045554376 18.951646142755422, 11.93636020487334 19.04104245624977, 11.501030759676766 19.140403561325773 M11.501030759676766 19.140403561325773 C11.128039618774858 19.200705876397294, 10.75504847787295 19.261008191468818, 10.267042152847878 19.3399052695533 M11.501030759676766 19.140403561325773 C11.048671392879047 19.213537515650344, 10.596312026081327 19.28667146997492, 10.267042152847878 19.3399052695533 M10.267042152847878 19.3399052695533 C9.89467665540295 19.37582692125678, 9.522311157958022 19.41174857296026, 9.0228067896239 19.45993515863156 M10.267042152847878 19.3399052695533 C10.01575124794621 19.364147000927634, 9.76446034304454 19.38838873230197, 9.0228067896239 19.45993515863156 M9.0228067896239 19.45993515863156 C8.53548290472071 19.475562687102006, 8.048159019817522 19.491190215572452, 7.7734375000000036 19.5 M9.0228067896239 19.45993515863156 C8.548115032208491 19.47515759936042, 8.073423274793084 19.490380040089274, 7.7734375000000036 19.5 M7.7734375000000036 19.5 C7.773437500000003 19.5, 7.773437500000001 19.5, 7.7734375 19.5 M7.7734375000000036 19.5 C7.773437500000003 19.5, 7.773437500000002 19.5, 7.7734375 19.5 M7.7734375 19.5 C4.084453137107243 19.5, 0.39546877421448645 19.5, -7.7734374999999964 19.5 M7.7734375 19.5 C3.845751151836732 19.5, -0.08193519632653601 19.5, -7.7734374999999964 19.5 M-7.7734374999999964 19.5 C-8.186913254161597 19.48674063734577, -8.600389008323198 19.47348127469154, -9.022806789623893 19.45993515863156 M-7.7734374999999964 19.5 C-8.13322588709056 19.488462286711616, -8.493014274181123 19.476924573423236, -9.022806789623893 19.45993515863156 M-9.022806789623893 19.45993515863156 C-9.34113083224056 19.429226821081002, -9.65945487485723 19.398518483530445, -10.267042152847871 19.3399052695533 M-9.022806789623893 19.45993515863156 C-9.433629354022992 19.4203035999304, -9.84445191842209 19.38067204122924, -10.267042152847871 19.3399052695533 M-10.267042152847871 19.3399052695533 C-10.679666359936121 19.273195387699786, -11.092290567024369 19.206485505846278, -11.501030759676759 19.140403561325773 M-10.267042152847871 19.3399052695533 C-10.605153288440176 19.28524208324175, -10.943264424032481 19.230578896930204, -11.501030759676759 19.140403561325773 M-11.501030759676759 19.140403561325773 C-11.931892317371444 19.042062222416387, -12.36275387506613 18.943720883506998, -12.719701886235388 18.862249829261074 M-11.501030759676759 19.140403561325773 C-11.771117527626373 19.078758019022146, -12.041204295575989 19.01711247671852, -12.719701886235388 18.862249829261074 M-12.719701886235388 18.862249829261074 C-13.082047420647603 18.75470757663805, -13.444392955059817 18.64716532401503, -13.918047751460593 18.506587066708043 M-12.719701886235388 18.862249829261074 C-13.047755514673577 18.764885234329256, -13.375809143111766 18.667520639397438, -13.918047751460593 18.506587066708043 M-13.918047751460593 18.506587066708043 C-14.37911423197192 18.33691033982805, -14.840180712483246 18.167233612948056, -15.091144095147797 18.074876768247425 M-13.918047751460593 18.506587066708043 C-14.15901236993827 18.417909859655744, -14.39997698841595 18.32923265260344, -15.091144095147797 18.074876768247425 M-15.091144095147797 18.074876768247425 C-15.327751638597453 17.970137627475662, -15.56435918204711 17.8653984867039, -16.23417041279238 17.568892924097174 M-15.091144095147797 18.074876768247425 C-15.483676779030333 17.90111419316098, -15.876209462912866 17.727351618074533, -16.23417041279238 17.568892924097174 M-16.23417041279238 17.568892924097174 C-16.66494459886126 17.344158307149073, -17.095718784930142 17.119423690200975, -17.34242976407678 16.990714730406097 M-16.23417041279238 17.568892924097174 C-16.64339371421209 17.355401389866547, -17.052617015631796 17.14190985563592, -17.34242976407678 16.990714730406097 M-17.34242976407678 16.990714730406097 C-17.57259583041372 16.851186708386702, -17.80276189675066 16.711658686367304, -18.411368073605686 16.3427180453909 M-17.34242976407678 16.990714730406097 C-17.60775384358658 16.829873714189894, -17.873077923096375 16.669032697973694, -18.411368073605686 16.3427180453909 M-18.411368073605686 16.3427180453909 C-18.62276839883915 16.195254329880623, -18.834168724072608 16.047790614370346, -19.436592844578712 15.627565626425156 M-18.411368073605686 16.3427180453909 C-18.806653668047247 16.06698392634606, -19.201939262488803 15.791249807301224, -19.436592844578712 15.627565626425156 M-19.436592844578712 15.627565626425156 C-19.733405284673513 15.3908656039603, -20.030217724768313 15.154165581495443, -20.41389120850187 14.848196188198125 M-19.436592844578712 15.627565626425156 C-19.814841500362977 15.325922389056663, -20.193090156147246 15.02427915168817, -20.41389120850187 14.848196188198125 M-20.41389120850187 14.848196188198125 C-20.7652823229324 14.52907207537173, -21.11667343736293 14.209947962545334, -21.339247236767974 14.007812326905697 M-20.41389120850187 14.848196188198125 C-20.722438230877685 14.567981946183265, -21.0309852532535 14.287767704168402, -21.339247236767974 14.007812326905697 M-21.339247236767974 14.007812326905697 C-21.559300795873305 13.780588960396244, -21.77935435497864 13.553365593886792, -22.208858442968655 13.109867360095677 M-21.339247236767974 14.007812326905697 C-21.54250297895365 13.797934085492207, -21.745758721139328 13.588055844078717, -22.208858442968655 13.109867360095677 M-22.208858442968655 13.109867360095677 C-22.42132736467611 12.860289274833963, -22.633796286383568 12.610711189572251, -23.01915140812658 12.158051136245307 M-22.208858442968655 13.109867360095677 C-22.531104431004028 12.731338886233162, -22.8533504190394 12.352810412370646, -23.01915140812658 12.158051136245307 M-23.01915140812658 12.158051136245307 C-23.301266013374914 11.780043266381798, -23.583380618623252 11.402035396518288, -23.766796464640635 11.156274872382316 M-23.01915140812658 12.158051136245307 C-23.214242111638395 11.896647366668192, -23.409332815150208 11.635243597091078, -23.766796464640635 11.156274872382316 M-23.766796464640635 11.156274872382316 C-23.915865328526074 10.927265066859514, -24.064934192411517 10.698255261336712, -24.448721378604244 10.108655082055249 M-23.766796464640635 11.156274872382316 C-23.978500946142972 10.831039938181604, -24.19020542764531 10.505805003980894, -24.448721378604244 10.108655082055249 M-24.448721378604244 10.108655082055249 C-24.676793104057598 9.703690638746304, -24.904864829510956 9.298726195437357, -25.0621239742735 9.019496659696289 M-24.448721378604244 10.108655082055249 C-24.643398258287654 9.76298656900566, -24.838075137971067 9.417318055956073, -25.0621239742735 9.019496659696289 M-25.0621239742735 9.019496659696289 C-25.177383834188994 8.780157094415836, -25.292643694104488 8.540817529135381, -25.60448364880834 7.893275190886686 M-25.0621239742735 9.019496659696289 C-25.268530963490804 8.590888130184481, -25.47493795270811 8.162279600672674, -25.60448364880834 7.893275190886686 M-25.60448364880834 7.893275190886686 C-25.769932483590818 7.484613370238353, -25.935381318373295 7.075951549590021, -26.073571729970325 6.73461856121551 M-25.60448364880834 7.893275190886686 C-25.738313004391376 7.56271409518202, -25.87214235997441 7.232152999477354, -26.073571729970325 6.73461856121551 M-26.073571729970325 6.73461856121551 C-26.222974621688902 6.284640855477288, -26.37237751340748 5.8346631497390655, -26.46746063421488 5.5482879393051325 M-26.073571729970325 6.73461856121551 C-26.158393532923277 6.479148805240207, -26.24321533587623 6.223679049264906, -26.46746063421488 5.5482879393051325 M-26.46746063421488 5.5482879393051325 C-26.53571928487351 5.287988120857435, -26.603977935532146 5.027688302409737, -26.784531787545557 4.339158212148136 M-26.46746063421488 5.5482879393051325 C-26.57608700048061 5.134048525768961, -26.68471336674634 4.719809112232789, -26.784531787545557 4.339158212148136 M-26.784531787545557 4.339158212148136 C-26.848741076359246 4.009457084727839, -26.912950365172936 3.6797559573075436, -27.023482276581777 3.112197953150904 M-26.784531787545557 4.339158212148136 C-26.864626513552356 3.9278887221295653, -26.944721239559154 3.516619232110995, -27.023482276581777 3.112197953150904 M-27.023482276581777 3.112197953150904 C-27.06048231838295 2.825232935425682, -27.09748236018412 2.53826791770046, -27.183330202509364 1.872449005199809 M-27.023482276581777 3.112197953150904 C-27.065158022154993 2.788969100291867, -27.106833767728205 2.46574024743283, -27.183330202509364 1.872449005199809 M-27.183330202509364 1.872449005199809 C-27.212382392926838 1.4199376889416362, -27.24143458334431 0.9674263726834633, -27.263418715913414 0.6250057626472781 M-27.183330202509364 1.872449005199809 C-27.199400698226405 1.6221380625362274, -27.215471193943447 1.3718271198726457, -27.263418715913414 0.6250057626472781 M-27.263418715913414 0.6250057626472781 C-27.263418715913414 0.26870037533220464, -27.263418715913414 -0.08760501198286885, -27.263418715913414 -0.6250057626472687 M-27.263418715913414 0.6250057626472781 C-27.263418715913414 0.31251928545576113, -27.263418715913414 0.000032808264244121865, -27.263418715913414 -0.6250057626472687 M-27.263418715913414 -0.6250057626472687 C-27.24393976478485 -0.9284061496009668, -27.224460813656293 -1.2318065365546649, -27.183330202509367 -1.8724490051997822 M-27.263418715913414 -0.6250057626472687 C-27.23259854150272 -1.105054856690852, -27.201778367092025 -1.5851039507344356, -27.183330202509367 -1.8724490051997822 M-27.183330202509367 -1.8724490051997822 C-27.146475115574557 -2.158289781606073, -27.109620028639746 -2.4441305580123647, -27.023482276581777 -3.112197953150895 M-27.183330202509367 -1.8724490051997822 C-27.128314801407654 -2.299137592124904, -27.073299400305945 -2.725826179050026, -27.023482276581777 -3.112197953150895 M-27.023482276581777 -3.112197953150895 C-26.972592054277573 -3.373508489030699, -26.921701831973365 -3.6348190249105037, -26.78453178754556 -4.339158212148126 M-27.023482276581777 -3.112197953150895 C-26.937461801689075 -3.553894911291117, -26.851441326796373 -3.995591869431338, -26.78453178754556 -4.339158212148126 M-26.78453178754556 -4.339158212148126 C-26.71289726803638 -4.612331681633781, -26.641262748527197 -4.885505151119435, -26.467460634214884 -5.548287939305123 M-26.78453178754556 -4.339158212148126 C-26.70988584378201 -4.623815547475217, -26.635239900018462 -4.9084728828023065, -26.467460634214884 -5.548287939305123 M-26.467460634214884 -5.548287939305123 C-26.34166567284745 -5.92716232023859, -26.21587071148002 -6.306036701172058, -26.073571729970332 -6.734618561215485 M-26.467460634214884 -5.548287939305123 C-26.325171013358776 -5.9768416065513845, -26.182881392502672 -6.405395273797646, -26.073571729970332 -6.734618561215485 M-26.073571729970332 -6.734618561215485 C-25.887450424858763 -7.194341783251704, -25.70132911974719 -7.654065005287924, -25.604483648808344 -7.893275190886676 M-26.073571729970332 -6.734618561215485 C-25.951911042020733 -7.035122812600384, -25.830250354071133 -7.3356270639852825, -25.604483648808344 -7.893275190886676 M-25.604483648808344 -7.893275190886676 C-25.477608990098865 -8.15673313437972, -25.35073433138939 -8.420191077872763, -25.062123974273504 -9.019496659696282 M-25.604483648808344 -7.893275190886676 C-25.436841102153906 -8.241388525990493, -25.269198555499468 -8.589501861094307, -25.062123974273504 -9.019496659696282 M-25.062123974273504 -9.019496659696282 C-24.925892858550732 -9.2613888005584, -24.789661742827956 -9.50328094142052, -24.448721378604247 -10.108655082055243 M-25.062123974273504 -9.019496659696282 C-24.9287117326929 -9.256383604077017, -24.7952994911123 -9.493270548457755, -24.448721378604247 -10.108655082055243 M-24.448721378604247 -10.108655082055243 C-24.241792379097514 -10.426553593514239, -24.034863379590778 -10.744452104973236, -23.76679646464064 -11.156274872382308 M-24.448721378604247 -10.108655082055243 C-24.27872495360197 -10.369815241290521, -24.10872852859969 -10.630975400525799, -23.76679646464064 -11.156274872382308 M-23.76679646464064 -11.156274872382308 C-23.522970331542343 -11.48297967771634, -23.27914419844404 -11.809684483050372, -23.019151408126586 -12.158051136245302 M-23.76679646464064 -11.156274872382308 C-23.468693746003865 -11.555705357639233, -23.17059102736709 -11.955135842896158, -23.019151408126586 -12.158051136245302 M-23.019151408126586 -12.158051136245302 C-22.804594839965382 -12.410081489822034, -22.590038271804183 -12.662111843398764, -22.208858442968662 -13.10986736009567 M-23.019151408126586 -12.158051136245302 C-22.801940836644434 -12.413199033139888, -22.584730265162282 -12.668346930034476, -22.208858442968662 -13.10986736009567 M-22.208858442968662 -13.10986736009567 C-21.998023457613897 -13.327571792348683, -21.787188472259132 -13.545276224601695, -21.339247236767996 -14.007812326905677 M-22.208858442968662 -13.10986736009567 C-21.992611004463416 -13.33316059459722, -21.77636356595817 -13.55645382909877, -21.339247236767996 -14.007812326905677 M-21.339247236767996 -14.007812326905677 C-20.983219174333787 -14.331147593222092, -20.62719111189958 -14.654482859538506, -20.413891208501887 -14.848196188198107 M-21.339247236767996 -14.007812326905677 C-21.088732385124274 -14.235323286908748, -20.838217533480552 -14.462834246911818, -20.413891208501887 -14.848196188198107 M-20.413891208501887 -14.848196188198107 C-20.046217608798873 -15.141406099755866, -19.678544009095855 -15.434616011313622, -19.43659284457872 -15.627565626425149 M-20.413891208501887 -14.848196188198107 C-20.076334519507736 -15.117388664910198, -19.738777830513584 -15.38658114162229, -19.43659284457872 -15.627565626425149 M-19.43659284457872 -15.627565626425149 C-19.14539349151511 -15.830693689305496, -18.854194138451508 -16.033821752185844, -18.41136807360571 -16.342718045390885 M-19.43659284457872 -15.627565626425149 C-19.08952876847562 -15.869662501752963, -18.742464692372522 -16.111759377080777, -18.41136807360571 -16.342718045390885 M-18.41136807360571 -16.342718045390885 C-18.03510392994695 -16.57081158045037, -17.65883978628819 -16.798905115509854, -17.34242976407679 -16.99071473040609 M-18.41136807360571 -16.342718045390885 C-18.094114574927115 -16.53503898067835, -17.77686107624852 -16.72735991596582, -17.34242976407679 -16.99071473040609 M-17.34242976407679 -16.99071473040609 C-16.93963299568489 -17.2008535464725, -16.536836227292987 -17.410992362538913, -16.234170412792388 -17.56889292409717 M-17.34242976407679 -16.99071473040609 C-17.02253433172399 -17.15760397256174, -16.702638899371188 -17.324493214717396, -16.234170412792388 -17.56889292409717 M-16.234170412792388 -17.56889292409717 C-15.790410890277606 -17.765332101055936, -15.346651367762824 -17.961771278014698, -15.091144095147806 -18.07487676824742 M-16.234170412792388 -17.56889292409717 C-15.839462919145213 -17.743618222952982, -15.444755425498037 -17.918343521808794, -15.091144095147806 -18.07487676824742 M-15.091144095147806 -18.07487676824742 C-14.836901587516065 -18.168440361247878, -14.582659079884325 -18.262003954248335, -13.918047751460618 -18.506587066708033 M-15.091144095147806 -18.07487676824742 C-14.701648967571057 -18.218214575649156, -14.312153839994307 -18.36155238305089, -13.918047751460618 -18.506587066708033 M-13.918047751460618 -18.506587066708033 C-13.653224437987475 -18.585185236060923, -13.388401124514335 -18.663783405413813, -12.719701886235413 -18.862249829261067 M-13.918047751460618 -18.506587066708033 C-13.667179752161246 -18.581043372067086, -13.416311752861874 -18.65549967742614, -12.719701886235413 -18.862249829261067 M-12.719701886235413 -18.862249829261067 C-12.284139283988734 -18.961664150912263, -11.848576681742058 -19.061078472563462, -11.501030759676768 -19.140403561325773 M-12.719701886235413 -18.862249829261067 C-12.335485638644014 -18.949944680528475, -11.951269391052618 -19.037639531795882, -11.501030759676768 -19.140403561325773 M-11.501030759676768 -19.140403561325773 C-11.102385463190448 -19.204853441321234, -10.70374016670413 -19.2693033213167, -10.26704215284788 -19.3399052695533 M-11.501030759676768 -19.140403561325773 C-11.084256007793762 -19.207784471073744, -10.667481255910754 -19.27516538082172, -10.26704215284788 -19.3399052695533 M-10.26704215284788 -19.3399052695533 C-9.975423378086177 -19.36803738203167, -9.683804603324473 -19.396169494510044, -9.022806789623903 -19.45993515863156 M-10.26704215284788 -19.3399052695533 C-9.97168990273398 -19.368397545908735, -9.676337652620079 -19.396889822264175, -9.022806789623903 -19.45993515863156 M-9.022806789623903 -19.45993515863156 C-8.706137205638194 -19.470090135830027, -8.389467621652484 -19.480245113028495, -7.773437500000006 -19.5 M-9.022806789623903 -19.45993515863156 C-8.67675914901452 -19.47103223292503, -8.330711508405138 -19.482129307218504, -7.773437500000006 -19.5 M-7.773437500000006 -19.5 C-7.7734375000000036 -19.5, -7.773437500000002 -19.5, -7.7734375 -19.5 M-7.773437500000006 -19.5 C-7.773437500000004 -19.5, -7.7734375000000036 -19.5, -7.7734375 -19.5" stroke="#9370DB" stroke-width="1.3" fill="none" stroke-dasharray="0 0" style=""></path></g><g class="label" style="" transform="translate(-14.8984375, -12)"><rect></rect><foreignObject width="29.796875" height="24"><div xmlns="http://www.w3.org/1999/xhtml" style="display: table-cell; white-space: nowrap; line-height: 1.5; max-width: 200px; text-align: center;"><span class="nodeLabel"><p>END</p></span></div></foreignObject></g></g><g class="node default" id="container-flowchart-route2-7" data-look="classic" transform="translate(236.91295909881592, 500.859375)"><polygon points="61.5625,0 123.125,-61.5625 61.5625,-123.125 0,-61.5625" class="label-container" transform="translate(-61.0625, 61.5625)"></polygon><g class="label" style="" transform="translate(-34.5625, -12)"><rect></rect><foreignObject width="69.125" height="24"><div xmlns="http://www.w3.org/1999/xhtml" style="display: table-cell; white-space: nowrap; line-height: 1.5; max-width: 200px; text-align: center;"><span class="nodeLabel"><p>high risk?</p></span></div></foreignObject></g></g><g class="node default" id="container-flowchart-human_approval-9" data-look="classic" transform="translate(285.1942090988159, 663.421875)"><rect class="basic label-container" style="" x="-97.5625" y="-27" width="195.125" height="54"></rect><g class="label" style="" transform="translate(-67.5625, -12)"><rect></rect><foreignObject width="135.125" height="24"><div xmlns="http://www.w3.org/1999/xhtml" style="display: table-cell; white-space: nowrap; line-height: 1.5; max-width: 200px; text-align: center;"><span class="nodeLabel"><p>🔴 Human Approval</p></span></div></foreignObject></g></g></g></g></g><defs><filter id="container-drop-shadow" height="130%" width="130%"><feDropShadow dx="4" dy="4" stdDeviation="0" flood-opacity="0.06" flood-color="#000000"></feDropShadow></filter></defs><defs><filter id="container-drop-shadow-small" height="150%" width="150%"><feDropShadow dx="2" dy="2" stdDeviation="0" flood-opacity="0.06" flood-color="#000000"></feDropShadow></filter></defs></svg>